<svg width="100" height="220" viewBox="0 0 100 220" fill="none" xmlns="http://www.w3.org/2000/svg">
<path d="M14.6286 205.374C-4.8762 185.874 -4.8762 154.147 14.6286 134.646C34.1334 115.146 65.8666 115.146 85.3714 134.646C104.876 154.147 104.876 185.874 85.3714 205.374C65.8666 224.875 34.1334 224.875 14.6286 205.374ZM83.014 137.003C64.8088 118.802 35.1912 118.802 16.9908 137.003C-1.21432 155.205 -1.21432 184.816 16.9908 203.013C35.1959 221.214 64.8136 221.214 83.014 203.013C101.219 184.811 101.219 155.2 83.014 137.003Z" fill="white"/>
<path d="M83.5574 159.402C83.3819 159.226 83.2397 159.003 83.159 158.757C81.4277 153.635 78.6006 149.097 74.7584 145.255C70.921 141.419 66.3769 138.592 61.254 136.857C60.5757 136.624 60.1204 135.994 60.1204 135.277V123.123C60.1204 122.611 60.3575 122.127 60.7607 121.809C61.1686 121.491 61.6952 121.382 62.1885 121.506C70.9448 123.697 78.9611 128.24 85.3646 134.647C91.7682 141.054 96.3124 149.063 98.5039 157.818C98.6272 158.316 98.5133 158.842 98.2003 159.25C97.8825 159.658 97.3986 159.89 96.8863 159.89H84.729C84.2737 159.89 83.8563 159.705 83.5479 159.397L83.5574 159.402ZM77.1159 142.898C81.0339 146.816 83.9891 151.406 85.9149 156.556H94.7091C92.4987 149.196 88.4811 142.472 83.0119 137.004C77.5428 131.536 70.8167 127.519 63.4597 125.314V134.106C68.611 136.027 73.2026 138.981 77.1206 142.903L77.1159 142.898Z" fill="white"/>
<path d="M14.6273 205.374C8.22372 198.972 3.6748 190.957 1.48336 182.203C1.36003 181.705 1.47388 181.179 1.78694 180.775C2.10475 180.368 2.58855 180.135 3.10084 180.135H15.2581C15.9744 180.135 16.61 180.591 16.8377 181.269C18.569 186.39 21.3961 190.929 25.2382 194.77C29.0756 198.607 33.6198 201.433 38.7427 203.169C39.421 203.397 39.8763 204.032 39.8763 204.748V216.903C39.8763 217.415 39.6391 217.899 39.2359 218.217C38.828 218.534 38.3015 218.643 37.8034 218.52C29.0471 216.329 21.0356 211.786 14.6273 205.384V205.374ZM5.28756 183.464C7.49798 190.825 11.5156 197.549 16.9847 203.017C22.4539 208.485 29.18 212.502 36.5417 214.712V205.92C31.3904 203.999 26.7988 201.044 22.8808 197.127C18.9627 193.21 16.0076 188.619 14.0818 183.469H5.28756V183.464Z" fill="white"/>
<path d="M60.6089 218.074C60.2959 217.761 60.1204 217.339 60.1204 216.894V204.739C60.1204 204.023 60.5757 203.387 61.254 203.16C66.3769 201.429 70.9163 198.602 74.7584 194.761C78.6006 190.92 81.4229 186.381 83.159 181.259C83.3866 180.581 84.0223 180.126 84.7385 180.126H96.8958C97.4081 180.126 97.892 180.363 98.2098 180.766C98.5276 181.169 98.6367 181.7 98.5133 182.194C96.3172 190.948 91.773 198.958 85.3694 205.365C78.9658 211.772 70.9495 216.315 62.1932 218.506C61.6952 218.629 61.1686 218.515 60.7655 218.202C60.7133 218.155 60.6611 218.112 60.6137 218.065L60.6089 218.074ZM63.455 205.915V214.707C70.8167 212.497 77.5428 208.481 83.0119 203.013C88.4811 197.545 92.494 190.82 94.7091 183.46H85.9149C83.9938 188.61 81.0387 193.196 77.1159 197.118C73.1979 201.035 68.6063 203.994 63.455 205.915Z" fill="white"/>
<path d="M1.92048 159.402C1.87305 159.355 1.82563 159.303 1.78768 159.25C1.46988 158.847 1.36077 158.316 1.4841 157.818C3.67554 149.064 8.21972 141.049 14.628 134.647C21.0363 128.245 29.0479 123.697 37.8042 121.506C38.3022 121.383 38.8287 121.496 39.2319 121.809C39.6351 122.127 39.8723 122.611 39.8723 123.123V135.278C39.8723 135.994 39.417 136.629 38.7387 136.857C33.6158 138.588 29.0763 141.414 25.2342 145.256C21.3968 149.092 18.5698 153.635 16.8337 158.757C16.606 159.435 15.9704 159.891 15.2542 159.891H3.09686C2.65098 159.891 2.22406 159.715 1.91574 159.407L1.92048 159.402ZM36.5377 125.314C29.176 127.524 22.4499 131.541 16.9807 137.009C11.5116 142.477 7.49872 149.201 5.28356 156.561H14.0778C15.9989 151.411 18.954 146.825 22.8768 142.903C26.7948 138.986 31.3864 136.032 36.5377 134.106V125.314Z" fill="white"/>
<path d="M77.1202 142.899C62.169 127.951 37.8355 127.946 22.8843 142.899C7.92844 157.851 7.93318 182.175 22.8843 197.123C37.8355 212.071 62.1643 212.076 77.1202 197.123C92.076 182.17 92.0713 157.847 77.1202 142.899Z" fill="white"/>
<path d="M63.8287 183.696L36.2798 183.879C35.1193 183.886 34.1847 184.833 34.1924 185.993L34.1989 186.975C34.2066 188.135 35.1536 189.07 36.3142 189.062L63.8631 188.879C65.0236 188.872 65.9582 187.925 65.9505 186.765L65.9439 185.783C65.9363 184.623 64.9892 183.688 63.8287 183.696Z" fill="#110A1D"/>
<path d="M40.0334 167.07C39.7345 167.07 39.431 167.004 39.1559 166.871L37.0071 165.832C36.0726 165.377 35.6457 164.272 36.0347 163.309L37.0213 160.853C37.3249 160.104 38.0411 159.615 38.8475 159.61C39.1938 159.61 39.5353 159.696 39.8389 159.871L42.4003 161.332C42.8794 161.602 43.2257 162.072 43.349 162.612C43.4723 163.153 43.3632 163.722 43.0502 164.177L41.6461 166.212C41.2809 166.743 40.6737 167.065 40.0286 167.065L40.0334 167.07Z" fill="#110A1D"/>
<path d="M59.8674 166.937C59.2223 166.937 58.6104 166.629 58.2405 166.103L56.8506 164.144C56.5281 163.694 56.4143 163.125 56.5281 162.584C56.6419 162.043 56.9835 161.569 57.4625 161.289L60.1046 159.738C60.4034 159.563 60.745 159.468 61.0912 159.463C61.8976 159.459 62.6234 159.938 62.9364 160.682L63.9325 163.068C64.331 164.026 63.9183 165.14 62.9933 165.605L60.745 166.729C60.4746 166.862 60.171 166.937 59.8722 166.937H59.8674Z" fill="#110A1D"/>
<path d="M37.8691 182.037C36.6595 182.047 35.5733 181.288 35.1606 180.15L30.5643 167.502C30.2702 167.644 29.9571 167.753 29.6393 167.834C29.2646 167.929 28.8851 167.976 28.5009 167.976C28.278 167.976 28.0598 167.966 27.8463 167.938C25.4509 167.634 23.6342 165.581 23.62 163.162C23.601 160.488 25.764 158.297 28.4392 158.278C31.1145 158.259 33.306 160.421 33.3202 163.096C33.3202 163.713 33.2158 164.305 32.9976 164.86C32.879 165.164 32.732 165.453 32.5613 165.728L41.3033 169.958L47.9915 160.27C47.7116 160.151 47.4412 160.004 47.1851 159.829C46.7013 159.501 46.2791 159.093 45.9376 158.614C45.3589 157.799 45.0458 156.836 45.0411 155.84C45.0221 153.166 47.1851 150.975 49.8604 150.956C49.979 150.956 50.1023 150.956 50.2209 150.965C52.6163 151.126 54.5516 153.047 54.7271 155.442C54.8077 156.575 54.5089 157.661 53.8638 158.586C53.5223 159.07 53.1048 159.482 52.6257 159.81C52.3743 159.985 52.104 160.132 51.8241 160.251L58.6309 169.84L67.2306 165.538C67.0694 165.23 66.9413 164.908 66.8465 164.571C66.7326 164.163 66.671 163.736 66.671 163.305C66.671 163.11 66.6804 162.916 66.6994 162.726C66.9745 160.289 69.0331 158.439 71.4854 158.425C74.1607 158.406 76.3522 160.568 76.3664 163.243C76.3854 165.794 74.4026 167.938 71.8554 168.113L71.5519 168.123C71.0585 168.123 70.5748 168.057 70.1052 167.914C69.8016 167.819 69.5075 167.701 69.2323 167.549L64.9159 179.95C64.5222 181.093 63.4407 181.862 62.2311 181.871L37.8691 182.032V182.037Z" fill="#110A1D"/>
<rect x="1.75" y="1.75" width="96.5" height="216.5" rx="48.0118" stroke="white" stroke-width="3.5"/>
</svg>
